[Header]
FileType HTR
DataType HTRS
FileVersion 1
NumSegments 64
NumFrames 3
DataFrameRate 30
EulerRotationOrder ZYX
CalibrationUnits mm
RotationUnits Degrees
GlobalAxisofGravity Y
BoneLengthAxis Y
ScaleFactor 1.0
[SegmentNames&Hierarchy]
Hips	GLOBAL
Spine	Hips
Spine1	Spine
Spine2	Spine1
Neck	Spine2
Head	Neck
LeftEye	Head
RightEye	Head
LeftShoulder	Spine2
LeftArm	LeftShoulder
LeftForeArm	LeftArm
LeftHand	LeftForeArm
LeftHandThumb1	LeftHand
LeftHandThumb2	LeftHandThumb1
LeftHandThumb3	LeftHandThumb2
LeftHandThumb4	LeftHandThumb3
LeftHandIndex1	LeftHand
LeftHandIndex2	LeftHandIndex1
LeftHandIndex3	LeftHandIndex2
LeftHandIndex4	LeftHandIndex3
LeftHandMiddle1	LeftHand
LeftHandMiddle2	LeftHandMiddle1
LeftHandMiddle3	LeftHandMiddle2
LeftHandMiddle4	LeftHandMiddle3
LeftHandRing1	LeftHand
LeftHandRing2	LeftHandRing1
LeftHandRing3	LeftHandRing2
LeftHandRing4	LeftHandRing3
LeftHandPinky1	LeftHand
LeftHandPinky2	LeftHandPinky1
LeftHandPinky3	LeftHandPinky2
LeftHandPinky4	LeftHandPinky3
RightShoulder	Spine2
RightArm	RightShoulder
RightForeArm	RightArm
RightHand	RightForeArm
RightHandPinky1	RightHand
RightHandPinky2	RightHandPinky1
RightHandPinky3	RightHandPinky2
RightHandPinky4	RightHandPinky3
RightHandRing1	RightHand
RightHandRing2	RightHandRing1
RightHandRing3	RightHandRing2
RightHandRing4	RightHandRing3
RightHandMiddle1	RightHand
RightHandMiddle2	RightHandMiddle1
RightHandMiddle3	RightHandMiddle2
RightHandMiddle4	RightHandMiddle3
RightHandIndex1	RightHand
RightHandIndex2	RightHandIndex1
RightHandIndex3	RightHandIndex2
RightHandIndex4	RightHandIndex3
RightHandThumb1	RightHand
RightHandThumb2	RightHandThumb1
RightHandThumb3	RightHandThumb2
RightHandThumb4	RightHandThumb3
LeftUpLeg	Hips
LeftLeg	LeftUpLeg
LeftFoot	LeftLeg
LeftToeBase	LeftFoot
RightUpLeg	Hips
RightLeg	RightUpLeg
RightFoot	RightLeg
RightToeBase	RightFoot
[BasePosition]
Hips	0	0	0	0	0	0	1
Spine	0	0	0	0	0	0	1
Spine1	0	0	0	0	0	0	1
Spine2	0	0	0	0	0	0	1
Neck	0	0	0	0	0	0	1
Head	0	0	0	0	0	0	1
LeftEye	0	0	0	0	0	0	1
RightEye	0	0	0	0	0	0	1
LeftShoulder	0	0	0	0	0	0	1
LeftArm	0	0	0	0	0	0	1
LeftForeArm	0	0	0	0	0	0	1
LeftHand	0	0	0	0	0	0	1
LeftHandThumb1	0	0	0	0	0	0	1
LeftHandThumb2	0	0	0	0	0	0	1
LeftHandThumb3	0	0	0	0	0	0	1
LeftHandThumb4	0	0	0	0	0	0	1
LeftHandIndex1	0	0	0	0	0	0	1
LeftHandIndex2	0	0	0	0	0	0	1
LeftHandIndex3	0	0	0	0	0	0	1
LeftHandIndex4	0	0	0	0	0	0	1
LeftHandMiddle1	0	0	0	0	0	0	1
LeftHandMiddle2	0	0	0	0	0	0	1
LeftHandMiddle3	0	0	0	0	0	0	1
LeftHandMiddle4	0	0	0	0	0	0	1
LeftHandRing1	0	0	0	0	0	0	1
LeftHandRing2	0	0	0	0	0	0	1
LeftHandRing3	0	0	0	0	0	0	1
LeftHandRing4	0	0	0	0	0	0	1
LeftHandPinky1	0	0	0	0	0	0	1
LeftHandPinky2	0	0	0	0	0	0	1
LeftHandPinky3	0	0	0	0	0	0	1
LeftHandPinky4	0	0	0	0	0	0	1
RightShoulder	0	0	0	0	0	0	1
RightArm	0	0	0	0	0	0	1
RightForeArm	0	0	0	0	0	0	1
RightHand	0	0	0	0	0	0	1
RightHandPinky1	0	0	0	0	0	0	1
RightHandPinky2	0	0	0	0	0	0	1
RightHandPinky3	0	0	0	0	0	0	1
RightHandPinky4	0	0	0	0	0	0	1
RightHandRing1	0	0	0	0	0	0	1
RightHandRing2	0	0	0	0	0	0	1
RightHandRing3	0	0	0	0	0	0	1
RightHandRing4	0	0	0	0	0	0	1
RightHandMiddle1	0	0	0	0	0	0	1
RightHandMiddle2	0	0	0	0	0	0	1
RightHandMiddle3	0	0	0	0	0	0	1
RightHandMiddle4	0	0	0	0	0	0	1
RightHandIndex1	0	0	0	0	0	0	1
RightHandIndex2	0	0	0	0	0	0	1
RightHandIndex3	0	0	0	0	0	0	1
RightHandIndex4	0	0	0	0	0	0	1
RightHandThumb1	0	0	0	0	0	0	1
RightHandThumb2	0	0	0	0	0	0	1
RightHandThumb3	0	0	0	0	0	0	1
RightHandThumb4	0	0	0	0	0	0	1
LeftUpLeg	0	0	0	0	0	0	1
LeftLeg	0	0	0	0	0	0	1
LeftFoot	0	0	0	0	0	0	1
LeftToeBase	0	0	0	0	0	0	1
RightUpLeg	0	0	0	0	0	0	1
RightLeg	0	0	0	0	0	0	1
RightFoot	0	0	0	0	0	0	1
RightToeBase	0	0	0	0	0	0	1
[Hips]
12	-667.6281128	943.9382324	13.52001667	-9.947271347	-72.02276611	17.137043	1.0
13	-718.748291	959.0036621	12.08947945	-8.619265556	-69.65202332	15.97517967	1.0
14	-770.5947266	975.5477295	9.833616257	-5.228858948	-67.795784	12.76933384	1.0
[Spine]
12	0	101.8159943	1.315000057	5.091632843	13.86373806	-6.447322845	1.0
13	0	101.8159943	1.315000057	5.564513206	11.46651554	-6.03815937	1.0
14	0	101.8159943	1.315000057	5.837254047	9.613555908	-4.893513203	1.0
[Spine1]
12	0	100.8349991	-10.00800037	3.800313711	7.130484581	-2.626636744	1.0
13	0	100.8349991	-10.00800037	3.982052803	6.839874744	-2.400185108	1.0
14	0	100.8349991	-10.00800037	4.120474815	6.223130703	-1.979554296	1.0
[Spine2]
12	0	91	-13.73399925	3.731253862	7.16176939	-2.604110479	1.0
13	0	91	-13.73399925	3.929093361	6.864296913	-2.38497591	1.0
14	0	91	-13.73399925	4.085693836	6.242981911	-1.967988729	1.0
[Neck]
12	0	166.7169952	-25.16200066	4.443452835	5.634048462	1.066293359	1.0
13	0	166.7169952	-25.16200066	4.491298676	5.738602161	0.9426962137	1.0
14	0	166.7169952	-25.16200066	4.647573948	5.80854845	0.9599895477	1.0
[Head]
12	0	96.17900085	16.84999847	-13.83065128	32.82493591	-11.27667809	1.0
13	0	96.17900085	16.84999847	-13.01690388	33.26123428	-11.43984699	1.0
14	0	96.17900085	16.84999847	-12.19697857	33.61382294	-11.393857	1.0
[LeftEye]
12	30.6760006	64.09500122	92.83599854	0	0	0	1.0
13	30.6760006	64.09500122	92.83599854	0	0	0	1.0
14	30.6760006	64.09500122	92.83599854	0	0	0	1.0
[RightEye]
12	-30.6760006	64.09500122	92.83499908	0	0	0	1.0
13	-30.6760006	64.09500122	92.83499908	0	0	0	1.0
14	-30.6760006	64.09500122	92.83499908	0	0	0	1.0
[LeftShoulder]
12	45.70400238	109.4599991	-26.28000069	0.8190660477	3.942689657	-9.453069687	1.0
13	45.70400238	109.4599991	-26.28000069	0.6690654159	3.260514021	-9.760451317	1.0
14	45.70400238	109.4599991	-26.28000069	0.5283160806	2.549333334	-9.797353745	1.0
[LeftArm]
12	105.923996	-5.24600029	-22.32099915	15.56851006	-2.521988392	-61.6611557	1.0
13	105.923996	-5.24600029	-22.32099915	15.41959763	-3.970037937	-62.52959442	1.0
14	105.923996	-5.24600029	-22.32099915	15.55387211	-5.240544319	-63.57648849	1.0
[LeftForeArm]
12	278.414978	-0.0009999999311	0	2.707527983e-06	-6.093099594	-0.0002059347753	1.0
13	278.414978	-0.0009999999311	0	-5.288224202e-06	-7.039827824	-0.0002079631813	1.0
14	278.414978	-0.0009999999311	0	-7.586426364e-06	-8.334668159	-0.0002046127047	1.0
[LeftHand]
12	283.2879944	0	0	5.362551689	-0.3333898485	5.099479675	1.0
13	283.2879944	0	0	4.713205338	-2.964594364	2.59051466	1.0
14	283.2879944	0	0	4.383835793	-4.930692673	-0.1011381149	1.0
[LeftHandThumb1]
12	24.6609993	-15.75	26.8239994	30.58115005	-20.32058144	11.29641056	1.0
13	24.6609993	-15.75	26.8239994	30.58115005	-20.32058144	11.29641056	1.0
14	24.6609993	-15.75	26.8239994	30.58115005	-20.32058144	11.29641056	1.0
[LeftHandThumb2]
12	32.29800034	-18.64699936	18.64699936	13.33423424	16.73215866	-3.018488169	1.0
13	32.29800034	-18.64699936	18.64699936	12.70294094	18.20438576	-2.832494974	1.0
14	32.29800034	-18.64699936	18.64699936	11.74398613	19.41571045	-2.478623152	1.0
[LeftHandThumb3]
12	26.52600098	-15.31499958	15.31499958	-15.20652008	7.882175446	10.07912159	1.0
13	26.52600098	-15.31499958	15.31499958	-15.18687057	7.928361893	10.06513691	1.0
14	26.52600098	-15.31499958	15.31499958	-15.15136909	8.011787415	10.03993511	1.0
[LeftHandThumb4]
12	19.54599953	-11.28499985	11.28499985	0	0	0	1.0
13	19.54599953	-11.28499985	11.28499985	0	0	0	1.0
14	19.54599953	-11.28499985	11.28499985	0	0	0	1.0
[LeftHandIndex1]
12	91.09299469	-5.170999527	22.60099792	-1.665076971	-6.142672539	-28.1062336	1.0
13	91.09299469	-5.170999527	22.60099792	-1.613190651	-6.247698307	-27.49869156	1.0
14	91.09299469	-5.170999527	22.60099792	-1.491769433	-6.33687973	-26.05567741	1.0
[LeftHandIndex2]
12	36.76399994	0	0	-0.7059276104	2.783261299	-28.45859337	1.0
13	36.76399994	0	0	-0.7100486159	2.790854931	-28.54356956	1.0
14	36.76399994	0	0	-0.7119829655	2.794416428	-28.58346939	1.0
[LeftHandIndex3]
12	28.83100128	0	0	-0.2879564166	1.811664104	-18.06139565	1.0
13	28.83100128	0	0	-0.2906841338	1.819993019	-18.14729881	1.0
14	28.83100128	0	0	-0.2919658422	1.823902249	-18.18762016	1.0
[LeftHandIndex4]
12	23.92700005	0	0	0	0	0	1.0
13	23.92700005	0	0	0	0	0	1.0
14	23.92700005	0	0	0	0	0	1.0
[LeftHandMiddle1]
12	95.33399963	0	0	-2.693021297	2.101863146	-38.65065765	1.0
13	95.33399963	0	0	-2.683642387	2.053166628	-38.55496597	1.0
14	95.33399963	0	0	-2.639026165	1.982202291	-38.09196091	1.0
[LeftHandMiddle2]
12	36.98199844	0	0	-0.5511108637	2.476737022	-25.08561325	1.0
13	36.98199844	0	0	-0.5512505174	2.47705102	-25.08902931	1.0
14	36.98199844	0	0	-0.5507196188	2.475914717	-25.07681656	1.0
[LeftHandMiddle3]
12	29.50900078	0	0	-0.3840560317	2.083296776	-20.88891029	1.0
13	29.50900078	0	0	-0.3841953278	2.083635569	-20.89241791	1.0
14	29.50900078	0	0	-0.3837510645	2.082463026	-20.8801403	1.0
[LeftHandMiddle4]
12	28.3390007	0	0	0	0	0	1.0
13	28.3390007	0	0	0	0	0	1.0
14	28.3390007	0	0	0	0	0	1.0
[LeftHandRing1]
12	91.04499817	-0.4390000105	-18.65100098	-2.319962978	2.857022047	-34.66744614	1.0
13	91.04499817	-0.4390000105	-18.65100098	-2.2914083	3.019174099	-34.35203171	1.0
14	91.04499817	-0.4390000105	-18.65100098	-2.244025946	3.240611315	-33.82879639	1.0
[LeftHandRing2]
12	31.54000092	0	0	-0.8639865518	3.056586504	-31.56080246	1.0
13	31.54000092	0	0	-0.8740846515	3.072937012	-31.74964523	1.0
14	31.54000092	0	0	-0.8830106258	3.087308645	-31.91592979	1.0
[LeftHandRing3]
12	29.37700081	0	0	-0.9608814716	3.208756447	-33.33369446	1.0
13	29.37700081	0	0	-0.9716403484	3.225025415	-33.52547455	1.0
14	29.37700081	0	0	-0.981159687	3.2393291	-33.6944046	1.0
[LeftHandRing4]
12	26.47500038	0	0	0	0	0	1.0
13	26.47500038	0	0	0	0	0	1.0
14	26.47500038	0	0	0	0	0	1.0
[LeftHandPinky1]
12	80.77799988	-4.887000084	-38.06099701	-2.018734932	1.707699537	-31.19844055	1.0
13	80.77799988	-4.887000084	-38.06099701	-1.995256543	2.100653648	-30.91566849	1.0
14	80.77799988	-4.887000084	-38.06099701	-1.972314239	2.577278614	-30.63746643	1.0
[LeftHandPinky2]
12	36	0	0	-0.4873822033	2.335870981	-23.56771851	1.0
13	36	0	0	-0.4920152426	2.346508503	-23.68148613	1.0
14	36	0	0	-0.486165911	2.333047628	-23.53748131	1.0
[LeftHandPinky3]
12	21.14200211	0	0	-0.5544462204	2.483822584	-25.16267586	1.0
13	21.14200211	0	0	-0.5581027865	2.4916327	-25.24729919	1.0
14	21.14200211	0	0	-0.5545065999	2.483987808	-25.16429329	1.0
[LeftHandPinky4]
12	19.75699997	0	0	0	0	0	1.0
13	19.75699997	0	0	0	0	0	1.0
14	19.75699997	0	0	0	0	0	1.0
[RightShoulder]
12	-45.70000076	109.4620056	-26.28000069	-0.02696975507	9.058652878	9.988799095	1.0
13	-45.70000076	109.4620056	-26.28000069	0.599698782	8.862607956	9.973909378	1.0
14	-45.70000076	109.4620056	-26.28000069	1.182590485	8.563542366	9.943671227	1.0
[RightArm]
12	-105.9280014	-5.248000145	-22.32099915	36.95995712	29.11585999	65.39292908	1.0
13	-105.9280014	-5.248000145	-22.32099915	36.15448761	28.38598251	64.04355621	1.0
14	-105.9280014	-5.248000145	-22.32099915	35.2261734	27.28304291	62.4711113	1.0
[RightForeArm]
12	-278.414978	0	0	6.376674719e-06	15.27039719	2.427121399e-05	1.0
13	-278.414978	0	0	1.770016524e-06	14.08277321	1.147528019e-05	1.0
14	-278.414978	0	0	-6.948915257e-07	13.84396172	5.324330687e-06	1.0
[RightHand]
12	-283.2879944	0	0.0009999999311	-6.527851105	2.920282602	-9.784956932	1.0
13	-283.2879944	0	0.0009999999311	-4.60623455	1.340255499	-7.205264091	1.0
14	-283.2879944	0	0.0009999999311	-1.73666811	0.7015925646	-5.206022739	1.0
[RightHandPinky1]
12	-80.76699829	-4.885000229	-38.06000137	-2.27628541	-3.762898684	37.12657166	1.0
13	-80.76699829	-4.885000229	-38.06000137	-2.222205877	-4.404413223	36.45477676	1.0
14	-80.76699829	-4.885000229	-38.06000137	-2.197414637	-4.628366947	36.14927673	1.0
[RightHandPinky2]
12	-36	0	0.0009999999311	-0.3889479637	-1.85932076	23.6480217	1.0
13	-36	0	0.0009999999311	-0.3925977945	-1.867643714	23.76034164	1.0
14	-36	0	0.0009999999311	-0.3961138427	-1.875615001	23.86796761	1.0
[RightHandPinky3]
12	-21.14200211	0	0	-0.1683454663	-1.238474488	15.48089886	1.0
13	-21.14200211	0	0	-0.1708316207	-1.247420907	15.59563351	1.0
14	-21.14200211	0	0	-0.1732611954	-1.256091475	15.7069006	1.0
[RightHandPinky4]
12	-19.75699997	0	0	0	0	0	1.0
13	-19.75699997	0	0	0	0	0	1.0
14	-19.75699997	0	0	0	0	0	1.0
[RightHandRing1]
12	-91.03599548	-0.4390000105	-18.65100098	-1.916423082	-6.629743576	32.61137009	1.0
13	-91.03599548	-0.4390000105	-18.65100098	-1.884051204	-6.474210262	32.18951416	1.0
14	-91.03599548	-0.4390000105	-18.65100098	-1.879045486	-6.462177753	32.1242218	1.0
[RightHandRing2]
12	-31.54000092	0	0	-0.3686694503	-1.812290192	22.99537086	1.0
13	-31.54000092	0	0	-0.3687553108	-1.812500477	22.99816704	1.0
14	-31.54000092	0	0	-0.3705329299	-1.81667757	23.05429077	1.0
[RightHandRing3]
12	-29.37700081	0	0	-0.2643213868	-1.543577194	19.43294144	1.0
13	-29.37700081	0	0	-0.2644234598	-1.543865561	19.43671989	1.0
14	-29.37700081	0	0	-0.2659543157	-1.548192859	19.49342728	1.0
[RightHandRing4]
12	-26.47500038	0	0	0	0	0	1.0
13	-26.47500038	0	0	0	0	0	1.0
14	-26.47500038	0	0	0	0	0	1.0
[RightHandMiddle1]
12	-95.32500458	0	0	-1.809081435	-3.532631636	31.1927166	1.0
13	-95.32500458	0	0	-1.769333363	-3.382089138	30.67254829	1.0
14	-95.32500458	0	0	-1.769795418	-3.19005847	30.67996979	1.0
[RightHandMiddle2]
12	-36.98199844	0	0	-0.2414445579	-1.477169752	18.5651474	1.0
13	-36.98199844	0	0	-0.2421804219	-1.479352474	18.59361649	1.0
14	-36.98199844	0	0	-0.2422480136	-1.479547381	18.59619331	1.0
[RightHandMiddle3]
12	-29.50900078	0	0	-0.08697200567	-0.8961985111	11.11044502	1.0
13	-29.50900078	0	0	-0.08741495013	-0.8984622359	11.13889408	1.0
14	-29.50900078	0	0	-0.08745398372	-0.8986726403	11.1415062	1.0
[RightHandMiddle4]
12	-28.3390007	0	0.0009999999311	0	0	0	1.0
13	-28.3390007	0	0.0009999999311	0	0	0	1.0
14	-28.3390007	0	0.0009999999311	0	0	0	1.0
[RightHandIndex1]
12	-91.08300018	-5.167999744	22.60099792	-1.124923944	0.149973765	25.31962967	1.0
13	-91.08300018	-5.167999744	22.60099792	-1.224105477	1.00567174	24.81307602	1.0
14	-91.08300018	-5.167999744	22.60099792	-1.295708895	1.461862564	24.74889755	1.0
[RightHandIndex2]
12	-36.76399994	0	0	-0.1018687561	-0.9669565558	12.02787209	1.0
13	-36.76399994	0	0	-0.1019028872	-0.9671192169	12.02994919	1.0
14	-36.76399994	0	0	-0.102028504	-0.9677081704	12.03735828	1.0
[RightHandIndex3]
12	-28.83100128	0	0	-0.1060050726	-0.9861267209	12.27001762	1.0
13	-28.83100128	0	0	-0.1060375348	-0.9862865806	12.27205467	1.0
14	-28.83100128	0	0	-0.1061607003	-0.9868730307	12.27947426	1.0
[RightHandIndex4]
12	-23.92700005	0	0	0	0	0	1.0
13	-23.92700005	0	0	0	0	0	1.0
14	-23.92700005	0	0	0	0	0	1.0
[RightHandThumb1]
12	-24.64799881	-15.72700024	26.82600021	-0.1902875453	0.8218618631	0.3671384752	1.0
13	-24.64799881	-15.72700024	26.82600021	-0.1902875453	0.8218618631	0.3671384752	1.0
14	-24.64799881	-15.72700024	26.82600021	-0.1902875453	0.8218618631	0.3671384752	1.0
[RightHandThumb2]
12	-32.29800034	-18.64699936	18.64699936	17.25371742	-6.29679966	-19.20695686	1.0
13	-32.29800034	-18.64699936	18.64699936	16.69622612	-3.351102591	-18.55540466	1.0
14	-32.29800034	-18.64699936	18.64699936	16.61618233	-2.577976227	-18.55744934	1.0
[RightHandThumb3]
12	-26.52600098	-15.31399918	15.31399918	-0.8295488954	9.327236176	-25.07043076	1.0
13	-26.52600098	-15.31399918	15.31399918	-0.3803622127	8.437531471	-24.15664101	1.0
14	-26.52600098	-15.31399918	15.31399918	-0.1934996992	8.038611412	-23.89910126	1.0
[RightHandThumb4]
12	-19.54599953	-11.28499985	11.28499985	0	0	0	1.0
13	-19.54599953	-11.28499985	11.28499985	0	0	0	1.0
14	-19.54599953	-11.28499985	11.28499985	0	0	0	1.0
[LeftUpLeg]
12	82.07800293	-67.51699829	-15.99599934	-41.95700455	-2.957581758	-8.546615601	1.0
13	82.07800293	-67.51699829	-15.99599934	-37.86869431	-0.965662241	-8.760433197	1.0
14	82.07800293	-67.51699829	-15.99599934	-33.52563858	1.515330315	-7.45625782	1.0
[LeftLeg]
12	0	-443.7049866	2.845999956	38.84747314	2.045554638	2.355473042	1.0
13	0	-443.7049866	2.845999956	37.33603287	-0.5963304639	0.06252530962	1.0
14	0	-443.7049866	2.845999956	34.71022034	-3.324695349	-1.978039145	1.0
[LeftFoot]
12	0	-444.2789917	-29.8219986	-3.215555906	0.5174939632	2.850625992	1.0
13	0	-444.2789917	-29.8219986	-5.766585827	-0.2409923673	3.012835026	1.0
14	0	-444.2789917	-29.8219986	-7.623648643	-1.19888413	2.908112049	1.0
[LeftToeBase]
12	0	-87.28699493	107.1060028	-5.376486301	-4.124922182e-09	-3.639529723e-06	1.0
13	0	-87.28699493	107.1060028	-5.377929688	3.697785132e-06	-3.475750191e-06	1.0
14	0	-87.28699493	107.1060028	-5.379576206	-1.67443668e-05	-1.057269628e-06	1.0
[RightUpLeg]
12	-82.07800293	-67.51699829	-15.99599934	-5.727789879	-15.64203548	-3.310644865	1.0
13	-82.07800293	-67.51699829	-15.99599934	-14.63109589	-15.13955021	-2.456775665	1.0
14	-82.07800293	-67.51699829	-15.99599934	-22.33048439	-15.07896423	-1.460528731	1.0
[RightLeg]
12	0	-443.7049866	2.861999989	60.51724625	4.112452507	8.87416935	1.0
13	0	-443.7049866	2.861999989	67.96408081	3.159544945	9.59996891	1.0
14	0	-443.7049866	2.861999989	69.42150116	2.269227266	7.531019211	1.0
[RightFoot]
12	0	-444.2770081	-29.83799934	14.24655628	10.69173717	11.83649445	1.0
13	0	-444.2770081	-29.83799934	6.478776932	3.908098936	5.598508835	1.0
14	0	-444.2770081	-29.83799934	0.4723495841	0.3976416588	-0.233138442	1.0
[RightToeBase]
12	0	-87.28699493	107.1060028	-12.46732903	-0.0009519517189	-0.1548469067	1.0
13	0	-87.28699493	107.1060028	-10.45484829	0.02514459938	0.08907044679	1.0
14	0	-87.28699493	107.1060028	-9.488150597	-1.737582124e-06	2.375878921e-06	1.0
[EndOfFile]
